<mxfile host="app.diagrams.net" modified="2023-11-30T15:37:11.000Z" agent="Mozilla/5.0 (X11; Linux x86_64) AppleWebKit/537.36 (KHTML, like Gecko) Chrome/119.0.0.0 Safari/537.36" etag="zRCXArFCt8pXE_GCnkpd" version="22.1.5" type="device">
  <diagram id="C5RBs43oDa-KdzZeNtuy" name="Page-1">
    <mxGraphModel dx="1364" dy="1940" grid="1" gridSize="10" guides="1" tooltips="1" connect="1" arrows="1" fold="1" page="1" pageScale="1" pageWidth="827" pageHeight="1169" math="0" shadow="0">
      <root>
        <mxCell id="WIyWlLk6GJQsqaUBKTNV-0" />
        <mxCell id="WIyWlLk6GJQsqaUBKTNV-1" parent="WIyWlLk6GJQsqaUBKTNV-0" />
        <mxCell id="WIyWlLk6GJQsqaUBKTNV-2" value="" style="rounded=0;html=1;jettySize=auto;orthogonalLoop=1;fontSize=11;endArrow=block;endFill=0;endSize=8;strokeWidth=1;shadow=0;labelBackgroundColor=none;edgeStyle=orthogonalEdgeStyle;" parent="WIyWlLk6GJQsqaUBKTNV-1" source="Lv3_BhyOrqylA06vnpCk-63" target="Lv3_BhyOrqylA06vnpCk-65" edge="1">
          <mxGeometry relative="1" as="geometry">
            <mxPoint x="220" y="50" as="sourcePoint" />
          </mxGeometry>
        </mxCell>
        <mxCell id="WIyWlLk6GJQsqaUBKTNV-5" value="No" style="edgeStyle=orthogonalEdgeStyle;rounded=0;html=1;jettySize=auto;orthogonalLoop=1;fontSize=11;endArrow=block;endFill=0;endSize=8;strokeWidth=1;shadow=0;labelBackgroundColor=none;" parent="WIyWlLk6GJQsqaUBKTNV-1" source="WIyWlLk6GJQsqaUBKTNV-6" target="WIyWlLk6GJQsqaUBKTNV-7" edge="1">
          <mxGeometry y="10" relative="1" as="geometry">
            <mxPoint as="offset" />
          </mxGeometry>
        </mxCell>
        <mxCell id="WIyWlLk6GJQsqaUBKTNV-6" value="What is your name?" style="rhombus;whiteSpace=wrap;html=1;shadow=0;fontFamily=Helvetica;fontSize=12;align=center;strokeWidth=1;spacing=6;spacingTop=-4;" parent="WIyWlLk6GJQsqaUBKTNV-1" vertex="1">
          <mxGeometry x="170" y="120" width="100" height="80" as="geometry" />
        </mxCell>
        <mxCell id="Lv3_BhyOrqylA06vnpCk-2" value="" style="edgeStyle=orthogonalEdgeStyle;shape=connector;rounded=0;orthogonalLoop=1;jettySize=auto;html=1;shadow=0;labelBackgroundColor=none;strokeColor=default;strokeWidth=1;align=center;verticalAlign=middle;fontFamily=Helvetica;fontSize=11;fontColor=default;endArrow=block;endFill=0;endSize=8;" edge="1" parent="WIyWlLk6GJQsqaUBKTNV-1" source="WIyWlLk6GJQsqaUBKTNV-7" target="Lv3_BhyOrqylA06vnpCk-1">
          <mxGeometry relative="1" as="geometry" />
        </mxCell>
        <mxCell id="WIyWlLk6GJQsqaUBKTNV-7" value="wait up to 3 min" style="rounded=1;whiteSpace=wrap;html=1;fontSize=12;glass=0;strokeWidth=1;shadow=0;" parent="WIyWlLk6GJQsqaUBKTNV-1" vertex="1">
          <mxGeometry x="320" y="140" width="120" height="40" as="geometry" />
        </mxCell>
        <mxCell id="Lv3_BhyOrqylA06vnpCk-1" value="Do you want to continue?" style="rhombus;whiteSpace=wrap;html=1;fontFamily=Helvetica;fontSize=11;fontColor=default;" vertex="1" parent="WIyWlLk6GJQsqaUBKTNV-1">
          <mxGeometry x="480" y="115" width="120" height="90" as="geometry" />
        </mxCell>
        <mxCell id="Lv3_BhyOrqylA06vnpCk-5" value="" style="endArrow=classic;html=1;rounded=0;shadow=0;labelBackgroundColor=none;strokeColor=default;strokeWidth=1;align=center;verticalAlign=middle;fontFamily=Helvetica;fontSize=11;fontColor=default;endSize=8;shape=connector;exitX=0.5;exitY=0;exitDx=0;exitDy=0;" edge="1" parent="WIyWlLk6GJQsqaUBKTNV-1" source="Lv3_BhyOrqylA06vnpCk-1">
          <mxGeometry width="50" height="50" relative="1" as="geometry">
            <mxPoint x="400" y="340" as="sourcePoint" />
            <mxPoint x="220" y="80" as="targetPoint" />
            <Array as="points">
              <mxPoint x="540" y="80" />
            </Array>
          </mxGeometry>
        </mxCell>
        <mxCell id="Lv3_BhyOrqylA06vnpCk-6" value="" style="endArrow=classic;html=1;rounded=0;shadow=0;labelBackgroundColor=none;strokeColor=default;strokeWidth=1;align=center;verticalAlign=middle;fontFamily=Helvetica;fontSize=11;fontColor=default;endSize=8;shape=connector;exitX=0.5;exitY=1;exitDx=0;exitDy=0;" edge="1" parent="WIyWlLk6GJQsqaUBKTNV-1" source="WIyWlLk6GJQsqaUBKTNV-6" target="Lv3_BhyOrqylA06vnpCk-8">
          <mxGeometry relative="1" as="geometry">
            <mxPoint x="370" y="310" as="sourcePoint" />
            <mxPoint x="220" y="280" as="targetPoint" />
          </mxGeometry>
        </mxCell>
        <mxCell id="Lv3_BhyOrqylA06vnpCk-7" value="Typed" style="edgeLabel;resizable=0;html=1;align=center;verticalAlign=middle;fontFamily=Helvetica;fontSize=11;fontColor=default;" connectable="0" vertex="1" parent="Lv3_BhyOrqylA06vnpCk-6">
          <mxGeometry relative="1" as="geometry" />
        </mxCell>
        <mxCell id="Lv3_BhyOrqylA06vnpCk-8" value="user_name" style="shape=dataStorage;whiteSpace=wrap;html=1;fixedSize=1;fontFamily=Helvetica;fontSize=11;fontColor=default;" vertex="1" parent="WIyWlLk6GJQsqaUBKTNV-1">
          <mxGeometry x="170" y="240" width="100" height="40" as="geometry" />
        </mxCell>
        <mxCell id="Lv3_BhyOrqylA06vnpCk-9" value="When were you born?" style="rhombus;whiteSpace=wrap;html=1;fontFamily=Helvetica;fontSize=11;fontColor=default;" vertex="1" parent="WIyWlLk6GJQsqaUBKTNV-1">
          <mxGeometry x="170" y="360" width="100" height="100" as="geometry" />
        </mxCell>
        <mxCell id="Lv3_BhyOrqylA06vnpCk-10" value="" style="endArrow=classic;html=1;rounded=0;shadow=0;labelBackgroundColor=none;strokeColor=default;strokeWidth=1;align=center;verticalAlign=middle;fontFamily=Helvetica;fontSize=11;fontColor=default;endSize=8;shape=connector;exitX=0.5;exitY=1;exitDx=0;exitDy=0;entryX=0.5;entryY=0;entryDx=0;entryDy=0;" edge="1" parent="WIyWlLk6GJQsqaUBKTNV-1" source="Lv3_BhyOrqylA06vnpCk-8" target="Lv3_BhyOrqylA06vnpCk-9">
          <mxGeometry width="50" height="50" relative="1" as="geometry">
            <mxPoint x="400" y="340" as="sourcePoint" />
            <mxPoint x="450" y="290" as="targetPoint" />
          </mxGeometry>
        </mxCell>
        <mxCell id="Lv3_BhyOrqylA06vnpCk-16" value="" style="endArrow=classic;html=1;rounded=0;shadow=0;labelBackgroundColor=none;strokeColor=default;strokeWidth=1;align=center;verticalAlign=middle;fontFamily=Helvetica;fontSize=11;fontColor=default;endSize=8;shape=connector;exitX=0.5;exitY=1;exitDx=0;exitDy=0;" edge="1" parent="WIyWlLk6GJQsqaUBKTNV-1" source="Lv3_BhyOrqylA06vnpCk-9" target="Lv3_BhyOrqylA06vnpCk-24">
          <mxGeometry relative="1" as="geometry">
            <mxPoint x="230" y="470" as="sourcePoint" />
            <mxPoint x="220" y="520" as="targetPoint" />
          </mxGeometry>
        </mxCell>
        <mxCell id="Lv3_BhyOrqylA06vnpCk-17" value="Typed" style="edgeLabel;resizable=0;html=1;align=center;verticalAlign=middle;fontFamily=Helvetica;fontSize=11;fontColor=default;" connectable="0" vertex="1" parent="Lv3_BhyOrqylA06vnpCk-16">
          <mxGeometry relative="1" as="geometry" />
        </mxCell>
        <mxCell id="Lv3_BhyOrqylA06vnpCk-18" value="Can I get your location?" style="rhombus;whiteSpace=wrap;html=1;fontFamily=Helvetica;fontSize=11;fontColor=default;" vertex="1" parent="WIyWlLk6GJQsqaUBKTNV-1">
          <mxGeometry x="170" y="680" width="100" height="90" as="geometry" />
        </mxCell>
        <mxCell id="Lv3_BhyOrqylA06vnpCk-19" value="" style="endArrow=classic;html=1;rounded=0;shadow=0;labelBackgroundColor=none;strokeColor=default;strokeWidth=1;align=center;verticalAlign=middle;fontFamily=Helvetica;fontSize=11;fontColor=default;endSize=8;shape=connector;" edge="1" parent="WIyWlLk6GJQsqaUBKTNV-1" source="Lv3_BhyOrqylA06vnpCk-18" target="Lv3_BhyOrqylA06vnpCk-21">
          <mxGeometry relative="1" as="geometry">
            <mxPoint x="370" y="580" as="sourcePoint" />
            <mxPoint x="470" y="580" as="targetPoint" />
          </mxGeometry>
        </mxCell>
        <mxCell id="Lv3_BhyOrqylA06vnpCk-20" value="yes" style="edgeLabel;resizable=0;html=1;align=center;verticalAlign=middle;fontFamily=Helvetica;fontSize=11;fontColor=default;" connectable="0" vertex="1" parent="Lv3_BhyOrqylA06vnpCk-19">
          <mxGeometry relative="1" as="geometry" />
        </mxCell>
        <mxCell id="Lv3_BhyOrqylA06vnpCk-21" value="get location" style="shape=process;whiteSpace=wrap;html=1;backgroundOutline=1;fontFamily=Helvetica;fontSize=11;fontColor=default;" vertex="1" parent="WIyWlLk6GJQsqaUBKTNV-1">
          <mxGeometry x="170" y="809" width="100" height="30" as="geometry" />
        </mxCell>
        <mxCell id="Lv3_BhyOrqylA06vnpCk-22" value="" style="endArrow=classic;html=1;rounded=0;shadow=0;labelBackgroundColor=none;strokeColor=default;strokeWidth=1;align=center;verticalAlign=middle;fontFamily=Helvetica;fontSize=11;fontColor=default;endSize=8;shape=connector;" edge="1" parent="WIyWlLk6GJQsqaUBKTNV-1" source="Lv3_BhyOrqylA06vnpCk-21" target="Lv3_BhyOrqylA06vnpCk-23">
          <mxGeometry width="50" height="50" relative="1" as="geometry">
            <mxPoint x="400" y="450" as="sourcePoint" />
            <mxPoint x="450" y="400" as="targetPoint" />
          </mxGeometry>
        </mxCell>
        <mxCell id="Lv3_BhyOrqylA06vnpCk-23" value="user_location" style="shape=dataStorage;whiteSpace=wrap;html=1;fixedSize=1;fontFamily=Helvetica;fontSize=11;fontColor=default;" vertex="1" parent="WIyWlLk6GJQsqaUBKTNV-1">
          <mxGeometry x="165" y="880" width="110" height="40" as="geometry" />
        </mxCell>
        <mxCell id="Lv3_BhyOrqylA06vnpCk-24" value="year(now) - year(born)" style="shape=process;whiteSpace=wrap;html=1;backgroundOutline=1;fontFamily=Helvetica;fontSize=11;fontColor=default;" vertex="1" parent="WIyWlLk6GJQsqaUBKTNV-1">
          <mxGeometry x="160" y="500" width="120" height="40" as="geometry" />
        </mxCell>
        <mxCell id="Lv3_BhyOrqylA06vnpCk-25" value="" style="endArrow=classic;html=1;rounded=0;shadow=0;labelBackgroundColor=none;strokeColor=default;strokeWidth=1;align=center;verticalAlign=middle;fontFamily=Helvetica;fontSize=11;fontColor=default;endSize=8;shape=connector;" edge="1" parent="WIyWlLk6GJQsqaUBKTNV-1" source="Lv3_BhyOrqylA06vnpCk-24" target="Lv3_BhyOrqylA06vnpCk-26">
          <mxGeometry width="50" height="50" relative="1" as="geometry">
            <mxPoint x="400" y="620" as="sourcePoint" />
            <mxPoint x="220" y="590" as="targetPoint" />
          </mxGeometry>
        </mxCell>
        <mxCell id="Lv3_BhyOrqylA06vnpCk-26" value="user_age" style="shape=dataStorage;whiteSpace=wrap;html=1;fixedSize=1;fontFamily=Helvetica;fontSize=11;fontColor=default;" vertex="1" parent="WIyWlLk6GJQsqaUBKTNV-1">
          <mxGeometry x="170" y="584.5" width="100" height="40" as="geometry" />
        </mxCell>
        <mxCell id="Lv3_BhyOrqylA06vnpCk-28" value="" style="endArrow=classic;html=1;rounded=0;shadow=0;labelBackgroundColor=none;strokeColor=default;strokeWidth=1;align=center;verticalAlign=middle;fontFamily=Helvetica;fontSize=11;fontColor=default;endSize=8;shape=connector;" edge="1" parent="WIyWlLk6GJQsqaUBKTNV-1" source="Lv3_BhyOrqylA06vnpCk-26" target="Lv3_BhyOrqylA06vnpCk-18">
          <mxGeometry width="50" height="50" relative="1" as="geometry">
            <mxPoint x="400" y="620" as="sourcePoint" />
            <mxPoint x="450" y="570" as="targetPoint" />
          </mxGeometry>
        </mxCell>
        <mxCell id="Lv3_BhyOrqylA06vnpCk-29" value="" style="endArrow=classic;html=1;rounded=0;shadow=0;labelBackgroundColor=none;strokeColor=default;strokeWidth=1;align=center;verticalAlign=middle;fontFamily=Helvetica;fontSize=11;fontColor=default;endSize=8;shape=connector;" edge="1" parent="WIyWlLk6GJQsqaUBKTNV-1" source="Lv3_BhyOrqylA06vnpCk-23" target="Lv3_BhyOrqylA06vnpCk-30">
          <mxGeometry width="50" height="50" relative="1" as="geometry">
            <mxPoint x="400" y="620" as="sourcePoint" />
            <mxPoint x="450" y="570" as="targetPoint" />
          </mxGeometry>
        </mxCell>
        <mxCell id="Lv3_BhyOrqylA06vnpCk-30" value="What is your domain?" style="rhombus;whiteSpace=wrap;html=1;fontFamily=Helvetica;fontSize=11;fontColor=default;" vertex="1" parent="WIyWlLk6GJQsqaUBKTNV-1">
          <mxGeometry x="180" y="1000" width="80" height="80" as="geometry" />
        </mxCell>
        <mxCell id="Lv3_BhyOrqylA06vnpCk-31" value="domain" style="shape=dataStorage;whiteSpace=wrap;html=1;fixedSize=1;fontFamily=Helvetica;fontSize=11;fontColor=default;" vertex="1" parent="WIyWlLk6GJQsqaUBKTNV-1">
          <mxGeometry x="170" y="1120" width="100" height="40" as="geometry" />
        </mxCell>
        <mxCell id="Lv3_BhyOrqylA06vnpCk-32" value="" style="endArrow=classic;html=1;rounded=0;shadow=0;labelBackgroundColor=none;strokeColor=default;strokeWidth=1;align=center;verticalAlign=middle;fontFamily=Helvetica;fontSize=11;fontColor=default;endSize=8;shape=connector;" edge="1" parent="WIyWlLk6GJQsqaUBKTNV-1" source="Lv3_BhyOrqylA06vnpCk-30" target="Lv3_BhyOrqylA06vnpCk-31">
          <mxGeometry relative="1" as="geometry">
            <mxPoint x="270" y="890" as="sourcePoint" />
            <mxPoint x="370" y="890" as="targetPoint" />
          </mxGeometry>
        </mxCell>
        <mxCell id="Lv3_BhyOrqylA06vnpCk-33" value="Typed" style="edgeLabel;resizable=0;html=1;align=center;verticalAlign=middle;fontFamily=Helvetica;fontSize=11;fontColor=default;" connectable="0" vertex="1" parent="Lv3_BhyOrqylA06vnpCk-32">
          <mxGeometry relative="1" as="geometry" />
        </mxCell>
        <mxCell id="Lv3_BhyOrqylA06vnpCk-36" value="" style="endArrow=classic;html=1;rounded=0;shadow=0;labelBackgroundColor=none;strokeColor=default;strokeWidth=1;align=center;verticalAlign=middle;fontFamily=Helvetica;fontSize=11;fontColor=default;endSize=8;shape=connector;" edge="1" parent="WIyWlLk6GJQsqaUBKTNV-1" source="Lv3_BhyOrqylA06vnpCk-31" target="Lv3_BhyOrqylA06vnpCk-37">
          <mxGeometry width="50" height="50" relative="1" as="geometry">
            <mxPoint x="300" y="920" as="sourcePoint" />
            <mxPoint x="220" y="1240" as="targetPoint" />
          </mxGeometry>
        </mxCell>
        <mxCell id="Lv3_BhyOrqylA06vnpCk-37" value="What is your position?" style="rhombus;whiteSpace=wrap;html=1;fontFamily=Helvetica;fontSize=11;fontColor=default;" vertex="1" parent="WIyWlLk6GJQsqaUBKTNV-1">
          <mxGeometry x="180" y="1240" width="80" height="80" as="geometry" />
        </mxCell>
        <mxCell id="Lv3_BhyOrqylA06vnpCk-38" value="" style="endArrow=classic;html=1;rounded=0;shadow=0;labelBackgroundColor=none;strokeColor=default;strokeWidth=1;align=center;verticalAlign=middle;fontFamily=Helvetica;fontSize=11;fontColor=default;endSize=8;shape=connector;" edge="1" parent="WIyWlLk6GJQsqaUBKTNV-1" source="Lv3_BhyOrqylA06vnpCk-37" target="Lv3_BhyOrqylA06vnpCk-40">
          <mxGeometry relative="1" as="geometry">
            <mxPoint x="230" y="1090" as="sourcePoint" />
            <mxPoint x="220" y="1360" as="targetPoint" />
            <Array as="points">
              <mxPoint x="220" y="1340" />
            </Array>
          </mxGeometry>
        </mxCell>
        <mxCell id="Lv3_BhyOrqylA06vnpCk-39" value="Typed" style="edgeLabel;resizable=0;html=1;align=center;verticalAlign=middle;fontFamily=Helvetica;fontSize=11;fontColor=default;" connectable="0" vertex="1" parent="Lv3_BhyOrqylA06vnpCk-38">
          <mxGeometry relative="1" as="geometry" />
        </mxCell>
        <mxCell id="Lv3_BhyOrqylA06vnpCk-40" value="position" style="shape=dataStorage;whiteSpace=wrap;html=1;fixedSize=1;fontFamily=Helvetica;fontSize=11;fontColor=default;" vertex="1" parent="WIyWlLk6GJQsqaUBKTNV-1">
          <mxGeometry x="170" y="1360" width="100" height="40" as="geometry" />
        </mxCell>
        <mxCell id="Lv3_BhyOrqylA06vnpCk-41" value="" style="endArrow=classic;html=1;rounded=0;shadow=0;labelBackgroundColor=none;strokeColor=default;strokeWidth=1;align=center;verticalAlign=middle;fontFamily=Helvetica;fontSize=11;fontColor=default;endSize=8;shape=connector;" edge="1" parent="WIyWlLk6GJQsqaUBKTNV-1" source="Lv3_BhyOrqylA06vnpCk-40" target="Lv3_BhyOrqylA06vnpCk-42">
          <mxGeometry width="50" height="50" relative="1" as="geometry">
            <mxPoint x="360" y="1350" as="sourcePoint" />
            <mxPoint x="410" y="1300" as="targetPoint" />
          </mxGeometry>
        </mxCell>
        <mxCell id="Lv3_BhyOrqylA06vnpCk-42" value="Please upload your photo" style="rhombus;whiteSpace=wrap;html=1;fontFamily=Helvetica;fontSize=11;fontColor=default;" vertex="1" parent="WIyWlLk6GJQsqaUBKTNV-1">
          <mxGeometry x="175" y="1480" width="90" height="100" as="geometry" />
        </mxCell>
        <mxCell id="Lv3_BhyOrqylA06vnpCk-45" value="photo" style="shape=dataStorage;whiteSpace=wrap;html=1;fixedSize=1;fontFamily=Helvetica;fontSize=11;fontColor=default;" vertex="1" parent="WIyWlLk6GJQsqaUBKTNV-1">
          <mxGeometry x="170" y="1610" width="100" height="40" as="geometry" />
        </mxCell>
        <mxCell id="Lv3_BhyOrqylA06vnpCk-46" value="" style="endArrow=classic;html=1;rounded=0;shadow=0;labelBackgroundColor=none;strokeColor=default;strokeWidth=1;align=center;verticalAlign=middle;fontFamily=Helvetica;fontSize=11;fontColor=default;endSize=8;shape=connector;" edge="1" parent="WIyWlLk6GJQsqaUBKTNV-1" source="Lv3_BhyOrqylA06vnpCk-42" target="Lv3_BhyOrqylA06vnpCk-45">
          <mxGeometry relative="1" as="geometry">
            <mxPoint x="320" y="1410" as="sourcePoint" />
            <mxPoint x="420" y="1410" as="targetPoint" />
          </mxGeometry>
        </mxCell>
        <mxCell id="Lv3_BhyOrqylA06vnpCk-47" value="Load" style="edgeLabel;resizable=0;html=1;align=center;verticalAlign=middle;fontFamily=Helvetica;fontSize=11;fontColor=default;" connectable="0" vertex="1" parent="Lv3_BhyOrqylA06vnpCk-46">
          <mxGeometry relative="1" as="geometry" />
        </mxCell>
        <mxCell id="Lv3_BhyOrqylA06vnpCk-48" value="" style="endArrow=classic;html=1;rounded=0;shadow=0;labelBackgroundColor=none;strokeColor=default;strokeWidth=1;align=center;verticalAlign=middle;fontFamily=Helvetica;fontSize=11;fontColor=default;endSize=8;shape=connector;" edge="1" parent="WIyWlLk6GJQsqaUBKTNV-1" source="Lv3_BhyOrqylA06vnpCk-45" target="Lv3_BhyOrqylA06vnpCk-49">
          <mxGeometry width="50" height="50" relative="1" as="geometry">
            <mxPoint x="350" y="1620" as="sourcePoint" />
            <mxPoint x="400" y="1570" as="targetPoint" />
          </mxGeometry>
        </mxCell>
        <mxCell id="Lv3_BhyOrqylA06vnpCk-49" value="Let us know a bit more about you" style="rhombus;whiteSpace=wrap;html=1;fontFamily=Helvetica;fontSize=11;fontColor=default;" vertex="1" parent="WIyWlLk6GJQsqaUBKTNV-1">
          <mxGeometry x="170" y="1720" width="100" height="120" as="geometry" />
        </mxCell>
        <mxCell id="Lv3_BhyOrqylA06vnpCk-50" value="description" style="shape=dataStorage;whiteSpace=wrap;html=1;fixedSize=1;fontFamily=Helvetica;fontSize=11;fontColor=default;" vertex="1" parent="WIyWlLk6GJQsqaUBKTNV-1">
          <mxGeometry x="170" y="1880" width="100" height="40" as="geometry" />
        </mxCell>
        <mxCell id="Lv3_BhyOrqylA06vnpCk-51" value="" style="endArrow=classic;html=1;rounded=0;shadow=0;labelBackgroundColor=none;strokeColor=default;strokeWidth=1;align=center;verticalAlign=middle;fontFamily=Helvetica;fontSize=11;fontColor=default;endSize=8;shape=connector;" edge="1" parent="WIyWlLk6GJQsqaUBKTNV-1" source="Lv3_BhyOrqylA06vnpCk-49" target="Lv3_BhyOrqylA06vnpCk-50">
          <mxGeometry relative="1" as="geometry">
            <mxPoint x="230" y="1330" as="sourcePoint" />
            <mxPoint x="230" y="1370" as="targetPoint" />
            <Array as="points" />
          </mxGeometry>
        </mxCell>
        <mxCell id="Lv3_BhyOrqylA06vnpCk-52" value="Typed" style="edgeLabel;resizable=0;html=1;align=center;verticalAlign=middle;fontFamily=Helvetica;fontSize=11;fontColor=default;" connectable="0" vertex="1" parent="Lv3_BhyOrqylA06vnpCk-51">
          <mxGeometry relative="1" as="geometry" />
        </mxCell>
        <mxCell id="Lv3_BhyOrqylA06vnpCk-53" value="" style="endArrow=classic;html=1;rounded=0;shadow=0;labelBackgroundColor=none;strokeColor=default;strokeWidth=1;align=center;verticalAlign=middle;fontFamily=Helvetica;fontSize=11;fontColor=default;endSize=8;shape=connector;" edge="1" parent="WIyWlLk6GJQsqaUBKTNV-1" source="Lv3_BhyOrqylA06vnpCk-50">
          <mxGeometry width="50" height="50" relative="1" as="geometry">
            <mxPoint x="350" y="1920" as="sourcePoint" />
            <mxPoint x="220" y="2000" as="targetPoint" />
          </mxGeometry>
        </mxCell>
        <mxCell id="Lv3_BhyOrqylA06vnpCk-54" value="Do you want to activate your account? (you can just create it as well so far)" style="rhombus;whiteSpace=wrap;html=1;fontFamily=Helvetica;fontSize=11;fontColor=default;" vertex="1" parent="WIyWlLk6GJQsqaUBKTNV-1">
          <mxGeometry x="135" y="2000" width="170" height="160" as="geometry" />
        </mxCell>
        <mxCell id="Lv3_BhyOrqylA06vnpCk-55" value="status" style="shape=dataStorage;whiteSpace=wrap;html=1;fixedSize=1;fontFamily=Helvetica;fontSize=11;fontColor=default;" vertex="1" parent="WIyWlLk6GJQsqaUBKTNV-1">
          <mxGeometry x="170" y="2200" width="100" height="40" as="geometry" />
        </mxCell>
        <mxCell id="Lv3_BhyOrqylA06vnpCk-59" value="" style="endArrow=classic;html=1;rounded=0;shadow=0;labelBackgroundColor=none;strokeColor=default;strokeWidth=1;align=center;verticalAlign=middle;fontFamily=Helvetica;fontSize=11;fontColor=default;endSize=8;shape=connector;" edge="1" parent="WIyWlLk6GJQsqaUBKTNV-1" source="Lv3_BhyOrqylA06vnpCk-54" target="Lv3_BhyOrqylA06vnpCk-55">
          <mxGeometry width="50" height="50" relative="1" as="geometry">
            <mxPoint x="390" y="2160" as="sourcePoint" />
            <mxPoint x="440" y="2110" as="targetPoint" />
          </mxGeometry>
        </mxCell>
        <mxCell id="Lv3_BhyOrqylA06vnpCk-60" value="raiting, user_id, telegram_user_id" style="shape=dataStorage;whiteSpace=wrap;html=1;fixedSize=1;fontFamily=Helvetica;fontSize=11;fontColor=default;" vertex="1" parent="WIyWlLk6GJQsqaUBKTNV-1">
          <mxGeometry x="145" y="2280" width="150" height="40" as="geometry" />
        </mxCell>
        <mxCell id="Lv3_BhyOrqylA06vnpCk-62" value="save in DB" style="shape=cylinder3;whiteSpace=wrap;html=1;boundedLbl=1;backgroundOutline=1;size=15;fontFamily=Helvetica;fontSize=11;fontColor=default;" vertex="1" parent="WIyWlLk6GJQsqaUBKTNV-1">
          <mxGeometry x="190" y="2400" width="60" height="80" as="geometry" />
        </mxCell>
        <mxCell id="Lv3_BhyOrqylA06vnpCk-63" value="to register a new user" style="ellipse;whiteSpace=wrap;html=1;fontFamily=Helvetica;fontSize=11;fontColor=#333333;fillColor=#f5f5f5;strokeColor=#666666;" vertex="1" parent="WIyWlLk6GJQsqaUBKTNV-1">
          <mxGeometry x="160" y="-280" width="120" height="80" as="geometry" />
        </mxCell>
        <mxCell id="Lv3_BhyOrqylA06vnpCk-64" value="That&#39;s it, congtats user_name with registration" style="ellipse;whiteSpace=wrap;html=1;fontFamily=Helvetica;fontSize=11;fontColor=#333333;fillColor=#f5f5f5;strokeColor=#666666;" vertex="1" parent="WIyWlLk6GJQsqaUBKTNV-1">
          <mxGeometry x="160" y="2560" width="120" height="80" as="geometry" />
        </mxCell>
        <mxCell id="Lv3_BhyOrqylA06vnpCk-65" value="telegram user id" style="shape=process;whiteSpace=wrap;html=1;backgroundOutline=1;fontFamily=Helvetica;fontSize=11;fontColor=default;" vertex="1" parent="WIyWlLk6GJQsqaUBKTNV-1">
          <mxGeometry x="160" y="-130" width="120" height="60" as="geometry" />
        </mxCell>
        <mxCell id="Lv3_BhyOrqylA06vnpCk-66" value="is it a new telegram user id?" style="rhombus;whiteSpace=wrap;html=1;fontFamily=Helvetica;fontSize=11;fontColor=default;" vertex="1" parent="WIyWlLk6GJQsqaUBKTNV-1">
          <mxGeometry x="180" y="-40" width="80" height="80" as="geometry" />
        </mxCell>
        <mxCell id="Lv3_BhyOrqylA06vnpCk-67" value="" style="endArrow=classic;html=1;rounded=0;shadow=0;labelBackgroundColor=none;strokeColor=default;strokeWidth=1;align=center;verticalAlign=middle;fontFamily=Helvetica;fontSize=11;fontColor=default;endSize=8;shape=connector;" edge="1" parent="WIyWlLk6GJQsqaUBKTNV-1" source="Lv3_BhyOrqylA06vnpCk-65" target="Lv3_BhyOrqylA06vnpCk-66">
          <mxGeometry width="50" height="50" relative="1" as="geometry">
            <mxPoint x="390" y="240" as="sourcePoint" />
            <mxPoint x="440" y="190" as="targetPoint" />
          </mxGeometry>
        </mxCell>
        <mxCell id="Lv3_BhyOrqylA06vnpCk-68" value="" style="endArrow=classic;html=1;rounded=0;shadow=0;labelBackgroundColor=none;strokeColor=default;strokeWidth=1;align=center;verticalAlign=middle;fontFamily=Helvetica;fontSize=11;fontColor=default;endSize=8;shape=connector;" edge="1" parent="WIyWlLk6GJQsqaUBKTNV-1" source="Lv3_BhyOrqylA06vnpCk-66" target="WIyWlLk6GJQsqaUBKTNV-6">
          <mxGeometry relative="1" as="geometry">
            <mxPoint x="370" y="220" as="sourcePoint" />
            <mxPoint x="470" y="220" as="targetPoint" />
          </mxGeometry>
        </mxCell>
        <mxCell id="Lv3_BhyOrqylA06vnpCk-69" value="Yes" style="edgeLabel;resizable=0;html=1;align=center;verticalAlign=middle;fontFamily=Helvetica;fontSize=11;fontColor=default;" connectable="0" vertex="1" parent="Lv3_BhyOrqylA06vnpCk-68">
          <mxGeometry relative="1" as="geometry">
            <mxPoint y="-18" as="offset" />
          </mxGeometry>
        </mxCell>
        <mxCell id="Lv3_BhyOrqylA06vnpCk-70" value="" style="endArrow=classic;html=1;rounded=0;shadow=0;labelBackgroundColor=none;strokeColor=default;strokeWidth=1;align=center;verticalAlign=middle;fontFamily=Helvetica;fontSize=11;fontColor=default;endSize=8;shape=connector;" edge="1" parent="WIyWlLk6GJQsqaUBKTNV-1" source="Lv3_BhyOrqylA06vnpCk-55" target="Lv3_BhyOrqylA06vnpCk-60">
          <mxGeometry width="50" height="50" relative="1" as="geometry">
            <mxPoint x="390" y="2350" as="sourcePoint" />
            <mxPoint x="440" y="2300" as="targetPoint" />
          </mxGeometry>
        </mxCell>
        <mxCell id="Lv3_BhyOrqylA06vnpCk-71" value="" style="endArrow=classic;html=1;rounded=0;shadow=0;labelBackgroundColor=none;strokeColor=default;strokeWidth=1;align=center;verticalAlign=middle;fontFamily=Helvetica;fontSize=11;fontColor=default;endSize=8;shape=connector;" edge="1" parent="WIyWlLk6GJQsqaUBKTNV-1" source="Lv3_BhyOrqylA06vnpCk-60" target="Lv3_BhyOrqylA06vnpCk-62">
          <mxGeometry width="50" height="50" relative="1" as="geometry">
            <mxPoint x="390" y="2350" as="sourcePoint" />
            <mxPoint x="440" y="2300" as="targetPoint" />
          </mxGeometry>
        </mxCell>
        <mxCell id="Lv3_BhyOrqylA06vnpCk-72" value="" style="endArrow=classic;html=1;rounded=0;shadow=0;labelBackgroundColor=none;strokeColor=default;strokeWidth=1;align=center;verticalAlign=middle;fontFamily=Helvetica;fontSize=11;fontColor=default;endSize=8;shape=connector;" edge="1" parent="WIyWlLk6GJQsqaUBKTNV-1" source="Lv3_BhyOrqylA06vnpCk-62" target="Lv3_BhyOrqylA06vnpCk-64">
          <mxGeometry width="50" height="50" relative="1" as="geometry">
            <mxPoint x="390" y="2350" as="sourcePoint" />
            <mxPoint x="440" y="2300" as="targetPoint" />
          </mxGeometry>
        </mxCell>
        <mxCell id="Lv3_BhyOrqylA06vnpCk-73" value="No" style="endArrow=classic;html=1;rounded=0;shadow=0;labelBackgroundColor=none;strokeColor=default;strokeWidth=1;align=center;verticalAlign=middle;fontFamily=Helvetica;fontSize=11;fontColor=default;endSize=8;shape=connector;" edge="1" parent="WIyWlLk6GJQsqaUBKTNV-1" source="Lv3_BhyOrqylA06vnpCk-66" target="Lv3_BhyOrqylA06vnpCk-75">
          <mxGeometry relative="1" as="geometry">
            <mxPoint x="370" y="-78" as="sourcePoint" />
            <mxPoint x="470" as="targetPoint" />
          </mxGeometry>
        </mxCell>
        <mxCell id="Lv3_BhyOrqylA06vnpCk-74" value="No" style="edgeLabel;resizable=0;html=1;align=center;verticalAlign=middle;fontFamily=Helvetica;fontSize=11;fontColor=default;" connectable="0" vertex="1" parent="Lv3_BhyOrqylA06vnpCk-73">
          <mxGeometry relative="1" as="geometry" />
        </mxCell>
        <mxCell id="Lv3_BhyOrqylA06vnpCk-75" value="You are already registered, login" style="ellipse;whiteSpace=wrap;html=1;fontFamily=Helvetica;fontSize=11;fontColor=#333333;fillColor=#f5f5f5;strokeColor=#666666;" vertex="1" parent="WIyWlLk6GJQsqaUBKTNV-1">
          <mxGeometry x="707" y="-40" width="120" height="80" as="geometry" />
        </mxCell>
        <mxCell id="Lv3_BhyOrqylA06vnpCk-78" value="No" style="edgeStyle=orthogonalEdgeStyle;rounded=0;html=1;jettySize=auto;orthogonalLoop=1;fontSize=11;endArrow=block;endFill=0;endSize=8;strokeWidth=1;shadow=0;labelBackgroundColor=none;" edge="1" parent="WIyWlLk6GJQsqaUBKTNV-1" target="Lv3_BhyOrqylA06vnpCk-80" source="Lv3_BhyOrqylA06vnpCk-9">
          <mxGeometry y="10" relative="1" as="geometry">
            <mxPoint as="offset" />
            <mxPoint x="270" y="410" as="sourcePoint" />
          </mxGeometry>
        </mxCell>
        <mxCell id="Lv3_BhyOrqylA06vnpCk-79" value="" style="edgeStyle=orthogonalEdgeStyle;shape=connector;rounded=0;orthogonalLoop=1;jettySize=auto;html=1;shadow=0;labelBackgroundColor=none;strokeColor=default;strokeWidth=1;align=center;verticalAlign=middle;fontFamily=Helvetica;fontSize=11;fontColor=default;endArrow=block;endFill=0;endSize=8;" edge="1" parent="WIyWlLk6GJQsqaUBKTNV-1" source="Lv3_BhyOrqylA06vnpCk-80" target="Lv3_BhyOrqylA06vnpCk-81">
          <mxGeometry relative="1" as="geometry" />
        </mxCell>
        <mxCell id="Lv3_BhyOrqylA06vnpCk-80" value="wait up to 3 min" style="rounded=1;whiteSpace=wrap;html=1;fontSize=12;glass=0;strokeWidth=1;shadow=0;" vertex="1" parent="WIyWlLk6GJQsqaUBKTNV-1">
          <mxGeometry x="320" y="390" width="120" height="40" as="geometry" />
        </mxCell>
        <mxCell id="Lv3_BhyOrqylA06vnpCk-81" value="Do you want to continue?" style="rhombus;whiteSpace=wrap;html=1;fontFamily=Helvetica;fontSize=11;fontColor=default;" vertex="1" parent="WIyWlLk6GJQsqaUBKTNV-1">
          <mxGeometry x="480" y="365" width="120" height="90" as="geometry" />
        </mxCell>
        <mxCell id="Lv3_BhyOrqylA06vnpCk-82" value="" style="endArrow=classic;html=1;rounded=0;shadow=0;labelBackgroundColor=none;strokeColor=default;strokeWidth=1;align=center;verticalAlign=middle;fontFamily=Helvetica;fontSize=11;fontColor=default;endSize=8;shape=connector;exitX=0.5;exitY=0;exitDx=0;exitDy=0;" edge="1" parent="WIyWlLk6GJQsqaUBKTNV-1" source="Lv3_BhyOrqylA06vnpCk-81">
          <mxGeometry width="50" height="50" relative="1" as="geometry">
            <mxPoint x="400" y="590" as="sourcePoint" />
            <mxPoint x="220" y="320" as="targetPoint" />
            <Array as="points">
              <mxPoint x="540" y="320" />
            </Array>
          </mxGeometry>
        </mxCell>
        <mxCell id="Lv3_BhyOrqylA06vnpCk-83" value="No" style="edgeStyle=orthogonalEdgeStyle;rounded=0;html=1;jettySize=auto;orthogonalLoop=1;fontSize=11;endArrow=block;endFill=0;endSize=8;strokeWidth=1;shadow=0;labelBackgroundColor=none;" edge="1" parent="WIyWlLk6GJQsqaUBKTNV-1" target="Lv3_BhyOrqylA06vnpCk-85" source="Lv3_BhyOrqylA06vnpCk-54">
          <mxGeometry y="10" relative="1" as="geometry">
            <mxPoint as="offset" />
            <mxPoint x="270" y="2080" as="sourcePoint" />
          </mxGeometry>
        </mxCell>
        <mxCell id="Lv3_BhyOrqylA06vnpCk-84" value="" style="edgeStyle=orthogonalEdgeStyle;shape=connector;rounded=0;orthogonalLoop=1;jettySize=auto;html=1;shadow=0;labelBackgroundColor=none;strokeColor=default;strokeWidth=1;align=center;verticalAlign=middle;fontFamily=Helvetica;fontSize=11;fontColor=default;endArrow=block;endFill=0;endSize=8;" edge="1" parent="WIyWlLk6GJQsqaUBKTNV-1" source="Lv3_BhyOrqylA06vnpCk-85" target="Lv3_BhyOrqylA06vnpCk-86">
          <mxGeometry relative="1" as="geometry" />
        </mxCell>
        <mxCell id="Lv3_BhyOrqylA06vnpCk-85" value="wait up to 3 min" style="rounded=1;whiteSpace=wrap;html=1;fontSize=12;glass=0;strokeWidth=1;shadow=0;" vertex="1" parent="WIyWlLk6GJQsqaUBKTNV-1">
          <mxGeometry x="340" y="2060" width="120" height="40" as="geometry" />
        </mxCell>
        <mxCell id="Lv3_BhyOrqylA06vnpCk-86" value="Do you want to continue?" style="rhombus;whiteSpace=wrap;html=1;fontFamily=Helvetica;fontSize=11;fontColor=default;" vertex="1" parent="WIyWlLk6GJQsqaUBKTNV-1">
          <mxGeometry x="480" y="2035" width="120" height="90" as="geometry" />
        </mxCell>
        <mxCell id="Lv3_BhyOrqylA06vnpCk-87" value="" style="endArrow=classic;html=1;rounded=0;shadow=0;labelBackgroundColor=none;strokeColor=default;strokeWidth=1;align=center;verticalAlign=middle;fontFamily=Helvetica;fontSize=11;fontColor=default;endSize=8;shape=connector;exitX=0.5;exitY=0;exitDx=0;exitDy=0;" edge="1" parent="WIyWlLk6GJQsqaUBKTNV-1" source="Lv3_BhyOrqylA06vnpCk-86">
          <mxGeometry width="50" height="50" relative="1" as="geometry">
            <mxPoint x="400" y="2260" as="sourcePoint" />
            <mxPoint x="220" y="1960" as="targetPoint" />
            <Array as="points">
              <mxPoint x="540" y="1960" />
            </Array>
          </mxGeometry>
        </mxCell>
        <mxCell id="Lv3_BhyOrqylA06vnpCk-88" value="No" style="edgeStyle=orthogonalEdgeStyle;rounded=0;html=1;jettySize=auto;orthogonalLoop=1;fontSize=11;endArrow=block;endFill=0;endSize=8;strokeWidth=1;shadow=0;labelBackgroundColor=none;" edge="1" parent="WIyWlLk6GJQsqaUBKTNV-1" target="Lv3_BhyOrqylA06vnpCk-90" source="Lv3_BhyOrqylA06vnpCk-49">
          <mxGeometry y="10" relative="1" as="geometry">
            <mxPoint as="offset" />
            <mxPoint x="270" y="1780" as="sourcePoint" />
          </mxGeometry>
        </mxCell>
        <mxCell id="Lv3_BhyOrqylA06vnpCk-89" value="" style="edgeStyle=orthogonalEdgeStyle;shape=connector;rounded=0;orthogonalLoop=1;jettySize=auto;html=1;shadow=0;labelBackgroundColor=none;strokeColor=default;strokeWidth=1;align=center;verticalAlign=middle;fontFamily=Helvetica;fontSize=11;fontColor=default;endArrow=block;endFill=0;endSize=8;" edge="1" parent="WIyWlLk6GJQsqaUBKTNV-1" source="Lv3_BhyOrqylA06vnpCk-90" target="Lv3_BhyOrqylA06vnpCk-91">
          <mxGeometry relative="1" as="geometry" />
        </mxCell>
        <mxCell id="Lv3_BhyOrqylA06vnpCk-90" value="wait up to 3 min" style="rounded=1;whiteSpace=wrap;html=1;fontSize=12;glass=0;strokeWidth=1;shadow=0;" vertex="1" parent="WIyWlLk6GJQsqaUBKTNV-1">
          <mxGeometry x="320" y="1760" width="120" height="40" as="geometry" />
        </mxCell>
        <mxCell id="Lv3_BhyOrqylA06vnpCk-91" value="Do you want to continue?" style="rhombus;whiteSpace=wrap;html=1;fontFamily=Helvetica;fontSize=11;fontColor=default;" vertex="1" parent="WIyWlLk6GJQsqaUBKTNV-1">
          <mxGeometry x="480" y="1735" width="120" height="90" as="geometry" />
        </mxCell>
        <mxCell id="Lv3_BhyOrqylA06vnpCk-92" value="" style="endArrow=classic;html=1;rounded=0;shadow=0;labelBackgroundColor=none;strokeColor=default;strokeWidth=1;align=center;verticalAlign=middle;fontFamily=Helvetica;fontSize=11;fontColor=default;endSize=8;shape=connector;exitX=0.5;exitY=0;exitDx=0;exitDy=0;" edge="1" parent="WIyWlLk6GJQsqaUBKTNV-1" source="Lv3_BhyOrqylA06vnpCk-91">
          <mxGeometry width="50" height="50" relative="1" as="geometry">
            <mxPoint x="400" y="1960" as="sourcePoint" />
            <mxPoint x="220" y="1680" as="targetPoint" />
            <Array as="points">
              <mxPoint x="540" y="1680" />
            </Array>
          </mxGeometry>
        </mxCell>
        <mxCell id="Lv3_BhyOrqylA06vnpCk-98" value="No" style="edgeStyle=orthogonalEdgeStyle;rounded=0;html=1;jettySize=auto;orthogonalLoop=1;fontSize=11;endArrow=block;endFill=0;endSize=8;strokeWidth=1;shadow=0;labelBackgroundColor=none;" edge="1" parent="WIyWlLk6GJQsqaUBKTNV-1" target="Lv3_BhyOrqylA06vnpCk-100" source="Lv3_BhyOrqylA06vnpCk-42">
          <mxGeometry y="10" relative="1" as="geometry">
            <mxPoint as="offset" />
            <mxPoint x="270" y="1530" as="sourcePoint" />
          </mxGeometry>
        </mxCell>
        <mxCell id="Lv3_BhyOrqylA06vnpCk-99" value="" style="edgeStyle=orthogonalEdgeStyle;shape=connector;rounded=0;orthogonalLoop=1;jettySize=auto;html=1;shadow=0;labelBackgroundColor=none;strokeColor=default;strokeWidth=1;align=center;verticalAlign=middle;fontFamily=Helvetica;fontSize=11;fontColor=default;endArrow=block;endFill=0;endSize=8;" edge="1" parent="WIyWlLk6GJQsqaUBKTNV-1" source="Lv3_BhyOrqylA06vnpCk-100" target="Lv3_BhyOrqylA06vnpCk-101">
          <mxGeometry relative="1" as="geometry" />
        </mxCell>
        <mxCell id="Lv3_BhyOrqylA06vnpCk-100" value="wait up to 3 min" style="rounded=1;whiteSpace=wrap;html=1;fontSize=12;glass=0;strokeWidth=1;shadow=0;" vertex="1" parent="WIyWlLk6GJQsqaUBKTNV-1">
          <mxGeometry x="320" y="1510" width="120" height="40" as="geometry" />
        </mxCell>
        <mxCell id="Lv3_BhyOrqylA06vnpCk-101" value="Do you want to continue?" style="rhombus;whiteSpace=wrap;html=1;fontFamily=Helvetica;fontSize=11;fontColor=default;" vertex="1" parent="WIyWlLk6GJQsqaUBKTNV-1">
          <mxGeometry x="480" y="1485" width="120" height="90" as="geometry" />
        </mxCell>
        <mxCell id="Lv3_BhyOrqylA06vnpCk-102" value="" style="endArrow=classic;html=1;rounded=0;shadow=0;labelBackgroundColor=none;strokeColor=default;strokeWidth=1;align=center;verticalAlign=middle;fontFamily=Helvetica;fontSize=11;fontColor=default;endSize=8;shape=connector;exitX=0.5;exitY=0;exitDx=0;exitDy=0;" edge="1" parent="WIyWlLk6GJQsqaUBKTNV-1" source="Lv3_BhyOrqylA06vnpCk-101">
          <mxGeometry width="50" height="50" relative="1" as="geometry">
            <mxPoint x="400" y="1710" as="sourcePoint" />
            <mxPoint x="220" y="1440" as="targetPoint" />
            <Array as="points">
              <mxPoint x="540" y="1440" />
            </Array>
          </mxGeometry>
        </mxCell>
        <mxCell id="Lv3_BhyOrqylA06vnpCk-103" value="No" style="edgeStyle=orthogonalEdgeStyle;rounded=0;html=1;jettySize=auto;orthogonalLoop=1;fontSize=11;endArrow=block;endFill=0;endSize=8;strokeWidth=1;shadow=0;labelBackgroundColor=none;" edge="1" parent="WIyWlLk6GJQsqaUBKTNV-1" target="Lv3_BhyOrqylA06vnpCk-105" source="Lv3_BhyOrqylA06vnpCk-37">
          <mxGeometry y="10" relative="1" as="geometry">
            <mxPoint as="offset" />
            <mxPoint x="270" y="1280" as="sourcePoint" />
          </mxGeometry>
        </mxCell>
        <mxCell id="Lv3_BhyOrqylA06vnpCk-104" value="" style="edgeStyle=orthogonalEdgeStyle;shape=connector;rounded=0;orthogonalLoop=1;jettySize=auto;html=1;shadow=0;labelBackgroundColor=none;strokeColor=default;strokeWidth=1;align=center;verticalAlign=middle;fontFamily=Helvetica;fontSize=11;fontColor=default;endArrow=block;endFill=0;endSize=8;" edge="1" parent="WIyWlLk6GJQsqaUBKTNV-1" source="Lv3_BhyOrqylA06vnpCk-105" target="Lv3_BhyOrqylA06vnpCk-106">
          <mxGeometry relative="1" as="geometry" />
        </mxCell>
        <mxCell id="Lv3_BhyOrqylA06vnpCk-105" value="wait up to 3 min" style="rounded=1;whiteSpace=wrap;html=1;fontSize=12;glass=0;strokeWidth=1;shadow=0;" vertex="1" parent="WIyWlLk6GJQsqaUBKTNV-1">
          <mxGeometry x="320" y="1260" width="120" height="40" as="geometry" />
        </mxCell>
        <mxCell id="Lv3_BhyOrqylA06vnpCk-106" value="Do you want to continue?" style="rhombus;whiteSpace=wrap;html=1;fontFamily=Helvetica;fontSize=11;fontColor=default;" vertex="1" parent="WIyWlLk6GJQsqaUBKTNV-1">
          <mxGeometry x="480" y="1235" width="120" height="90" as="geometry" />
        </mxCell>
        <mxCell id="Lv3_BhyOrqylA06vnpCk-107" value="" style="endArrow=classic;html=1;rounded=0;shadow=0;labelBackgroundColor=none;strokeColor=default;strokeWidth=1;align=center;verticalAlign=middle;fontFamily=Helvetica;fontSize=11;fontColor=default;endSize=8;shape=connector;exitX=0.5;exitY=0;exitDx=0;exitDy=0;" edge="1" parent="WIyWlLk6GJQsqaUBKTNV-1" source="Lv3_BhyOrqylA06vnpCk-106">
          <mxGeometry width="50" height="50" relative="1" as="geometry">
            <mxPoint x="400" y="1460" as="sourcePoint" />
            <mxPoint x="220" y="1200" as="targetPoint" />
            <Array as="points">
              <mxPoint x="540" y="1200" />
            </Array>
          </mxGeometry>
        </mxCell>
        <mxCell id="Lv3_BhyOrqylA06vnpCk-108" value="No" style="edgeStyle=orthogonalEdgeStyle;rounded=0;html=1;jettySize=auto;orthogonalLoop=1;fontSize=11;endArrow=block;endFill=0;endSize=8;strokeWidth=1;shadow=0;labelBackgroundColor=none;exitX=1;exitY=0.5;exitDx=0;exitDy=0;" edge="1" parent="WIyWlLk6GJQsqaUBKTNV-1" target="Lv3_BhyOrqylA06vnpCk-110" source="Lv3_BhyOrqylA06vnpCk-30">
          <mxGeometry y="10" relative="1" as="geometry">
            <mxPoint as="offset" />
            <mxPoint x="270" y="1040" as="sourcePoint" />
          </mxGeometry>
        </mxCell>
        <mxCell id="Lv3_BhyOrqylA06vnpCk-109" value="" style="edgeStyle=orthogonalEdgeStyle;shape=connector;rounded=0;orthogonalLoop=1;jettySize=auto;html=1;shadow=0;labelBackgroundColor=none;strokeColor=default;strokeWidth=1;align=center;verticalAlign=middle;fontFamily=Helvetica;fontSize=11;fontColor=default;endArrow=block;endFill=0;endSize=8;" edge="1" parent="WIyWlLk6GJQsqaUBKTNV-1" source="Lv3_BhyOrqylA06vnpCk-110" target="Lv3_BhyOrqylA06vnpCk-111">
          <mxGeometry relative="1" as="geometry" />
        </mxCell>
        <mxCell id="Lv3_BhyOrqylA06vnpCk-110" value="wait up to 3 min" style="rounded=1;whiteSpace=wrap;html=1;fontSize=12;glass=0;strokeWidth=1;shadow=0;" vertex="1" parent="WIyWlLk6GJQsqaUBKTNV-1">
          <mxGeometry x="320" y="1020" width="120" height="40" as="geometry" />
        </mxCell>
        <mxCell id="Lv3_BhyOrqylA06vnpCk-111" value="Do you want to continue?" style="rhombus;whiteSpace=wrap;html=1;fontFamily=Helvetica;fontSize=11;fontColor=default;" vertex="1" parent="WIyWlLk6GJQsqaUBKTNV-1">
          <mxGeometry x="480" y="995" width="120" height="90" as="geometry" />
        </mxCell>
        <mxCell id="Lv3_BhyOrqylA06vnpCk-112" value="" style="endArrow=classic;html=1;rounded=0;shadow=0;labelBackgroundColor=none;strokeColor=default;strokeWidth=1;align=center;verticalAlign=middle;fontFamily=Helvetica;fontSize=11;fontColor=default;endSize=8;shape=connector;exitX=0.5;exitY=0;exitDx=0;exitDy=0;" edge="1" parent="WIyWlLk6GJQsqaUBKTNV-1" source="Lv3_BhyOrqylA06vnpCk-111">
          <mxGeometry width="50" height="50" relative="1" as="geometry">
            <mxPoint x="400" y="1220" as="sourcePoint" />
            <mxPoint x="220" y="960" as="targetPoint" />
            <Array as="points">
              <mxPoint x="540" y="960" />
            </Array>
          </mxGeometry>
        </mxCell>
        <mxCell id="Lv3_BhyOrqylA06vnpCk-113" value="No" style="edgeStyle=orthogonalEdgeStyle;rounded=0;html=1;jettySize=auto;orthogonalLoop=1;fontSize=11;endArrow=block;endFill=0;endSize=8;strokeWidth=1;shadow=0;labelBackgroundColor=none;" edge="1" parent="WIyWlLk6GJQsqaUBKTNV-1" target="Lv3_BhyOrqylA06vnpCk-115" source="Lv3_BhyOrqylA06vnpCk-18">
          <mxGeometry y="10" relative="1" as="geometry">
            <mxPoint as="offset" />
            <mxPoint x="270" y="725" as="sourcePoint" />
          </mxGeometry>
        </mxCell>
        <mxCell id="Lv3_BhyOrqylA06vnpCk-114" value="" style="edgeStyle=orthogonalEdgeStyle;shape=connector;rounded=0;orthogonalLoop=1;jettySize=auto;html=1;shadow=0;labelBackgroundColor=none;strokeColor=default;strokeWidth=1;align=center;verticalAlign=middle;fontFamily=Helvetica;fontSize=11;fontColor=default;endArrow=block;endFill=0;endSize=8;" edge="1" parent="WIyWlLk6GJQsqaUBKTNV-1" source="Lv3_BhyOrqylA06vnpCk-115" target="Lv3_BhyOrqylA06vnpCk-116">
          <mxGeometry relative="1" as="geometry" />
        </mxCell>
        <mxCell id="Lv3_BhyOrqylA06vnpCk-115" value="wait up to 3 min" style="rounded=1;whiteSpace=wrap;html=1;fontSize=12;glass=0;strokeWidth=1;shadow=0;" vertex="1" parent="WIyWlLk6GJQsqaUBKTNV-1">
          <mxGeometry x="320" y="705" width="120" height="40" as="geometry" />
        </mxCell>
        <mxCell id="Lv3_BhyOrqylA06vnpCk-116" value="Do you want to continue?" style="rhombus;whiteSpace=wrap;html=1;fontFamily=Helvetica;fontSize=11;fontColor=default;" vertex="1" parent="WIyWlLk6GJQsqaUBKTNV-1">
          <mxGeometry x="480" y="680" width="120" height="90" as="geometry" />
        </mxCell>
        <mxCell id="Lv3_BhyOrqylA06vnpCk-117" value="" style="endArrow=classic;html=1;rounded=0;shadow=0;labelBackgroundColor=none;strokeColor=default;strokeWidth=1;align=center;verticalAlign=middle;fontFamily=Helvetica;fontSize=11;fontColor=default;endSize=8;shape=connector;exitX=0.5;exitY=0;exitDx=0;exitDy=0;" edge="1" parent="WIyWlLk6GJQsqaUBKTNV-1" source="Lv3_BhyOrqylA06vnpCk-116">
          <mxGeometry width="50" height="50" relative="1" as="geometry">
            <mxPoint x="400" y="905" as="sourcePoint" />
            <mxPoint x="220" y="650" as="targetPoint" />
            <Array as="points">
              <mxPoint x="540" y="650" />
            </Array>
          </mxGeometry>
        </mxCell>
        <mxCell id="Lv3_BhyOrqylA06vnpCk-118" value="exit" style="ellipse;whiteSpace=wrap;html=1;fontFamily=Helvetica;fontSize=11;fontColor=#333333;fillColor=#f5f5f5;strokeColor=#666666;" vertex="1" parent="WIyWlLk6GJQsqaUBKTNV-1">
          <mxGeometry x="660" y="2560" width="120" height="80" as="geometry" />
        </mxCell>
        <mxCell id="Lv3_BhyOrqylA06vnpCk-120" value="" style="endArrow=classic;html=1;rounded=0;shadow=0;labelBackgroundColor=none;strokeColor=default;strokeWidth=1;align=center;verticalAlign=middle;fontFamily=Helvetica;fontSize=11;fontColor=default;endSize=8;shape=connector;" edge="1" parent="WIyWlLk6GJQsqaUBKTNV-1" source="Lv3_BhyOrqylA06vnpCk-1" target="Lv3_BhyOrqylA06vnpCk-118">
          <mxGeometry relative="1" as="geometry">
            <mxPoint x="590" y="370" as="sourcePoint" />
            <mxPoint x="730" y="640" as="targetPoint" />
            <Array as="points">
              <mxPoint x="720" y="160" />
            </Array>
          </mxGeometry>
        </mxCell>
        <mxCell id="Lv3_BhyOrqylA06vnpCk-121" value="No" style="edgeLabel;resizable=0;html=1;align=center;verticalAlign=middle;fontFamily=Helvetica;fontSize=11;fontColor=default;" connectable="0" vertex="1" parent="Lv3_BhyOrqylA06vnpCk-120">
          <mxGeometry relative="1" as="geometry" />
        </mxCell>
        <mxCell id="Lv3_BhyOrqylA06vnpCk-122" value="" style="endArrow=classic;html=1;rounded=0;shadow=0;labelBackgroundColor=none;strokeColor=default;strokeWidth=1;align=center;verticalAlign=middle;fontFamily=Helvetica;fontSize=11;fontColor=default;endSize=8;shape=connector;" edge="1" parent="WIyWlLk6GJQsqaUBKTNV-1" source="Lv3_BhyOrqylA06vnpCk-81" target="Lv3_BhyOrqylA06vnpCk-118">
          <mxGeometry relative="1" as="geometry">
            <mxPoint x="580" y="170" as="sourcePoint" />
            <mxPoint x="757" y="716" as="targetPoint" />
            <Array as="points">
              <mxPoint x="720" y="410" />
            </Array>
          </mxGeometry>
        </mxCell>
        <mxCell id="Lv3_BhyOrqylA06vnpCk-123" value="No" style="edgeLabel;resizable=0;html=1;align=center;verticalAlign=middle;fontFamily=Helvetica;fontSize=11;fontColor=default;" connectable="0" vertex="1" parent="Lv3_BhyOrqylA06vnpCk-122">
          <mxGeometry relative="1" as="geometry" />
        </mxCell>
        <mxCell id="Lv3_BhyOrqylA06vnpCk-124" value="" style="endArrow=classic;html=1;rounded=0;shadow=0;labelBackgroundColor=none;strokeColor=default;strokeWidth=1;align=center;verticalAlign=middle;fontFamily=Helvetica;fontSize=11;fontColor=default;endSize=8;shape=connector;" edge="1" parent="WIyWlLk6GJQsqaUBKTNV-1" source="Lv3_BhyOrqylA06vnpCk-116" target="Lv3_BhyOrqylA06vnpCk-118">
          <mxGeometry relative="1" as="geometry">
            <mxPoint x="570" y="450" as="sourcePoint" />
            <mxPoint x="746" y="718" as="targetPoint" />
            <Array as="points">
              <mxPoint x="720" y="725" />
            </Array>
          </mxGeometry>
        </mxCell>
        <mxCell id="Lv3_BhyOrqylA06vnpCk-125" value="No" style="edgeLabel;resizable=0;html=1;align=center;verticalAlign=middle;fontFamily=Helvetica;fontSize=11;fontColor=default;" connectable="0" vertex="1" parent="Lv3_BhyOrqylA06vnpCk-124">
          <mxGeometry relative="1" as="geometry" />
        </mxCell>
        <mxCell id="Lv3_BhyOrqylA06vnpCk-126" value="" style="endArrow=classic;html=1;rounded=0;shadow=0;labelBackgroundColor=none;strokeColor=default;strokeWidth=1;align=center;verticalAlign=middle;fontFamily=Helvetica;fontSize=11;fontColor=default;endSize=8;shape=connector;" edge="1" parent="WIyWlLk6GJQsqaUBKTNV-1" source="Lv3_BhyOrqylA06vnpCk-111" target="Lv3_BhyOrqylA06vnpCk-118">
          <mxGeometry relative="1" as="geometry">
            <mxPoint x="604" y="740" as="sourcePoint" />
            <mxPoint x="711" y="750" as="targetPoint" />
            <Array as="points">
              <mxPoint x="720" y="1040" />
            </Array>
          </mxGeometry>
        </mxCell>
        <mxCell id="Lv3_BhyOrqylA06vnpCk-127" value="No" style="edgeLabel;resizable=0;html=1;align=center;verticalAlign=middle;fontFamily=Helvetica;fontSize=11;fontColor=default;" connectable="0" vertex="1" parent="Lv3_BhyOrqylA06vnpCk-126">
          <mxGeometry relative="1" as="geometry" />
        </mxCell>
        <mxCell id="Lv3_BhyOrqylA06vnpCk-128" value="" style="endArrow=classic;html=1;rounded=0;shadow=0;labelBackgroundColor=none;strokeColor=default;strokeWidth=1;align=center;verticalAlign=middle;fontFamily=Helvetica;fontSize=11;fontColor=default;endSize=8;shape=connector;" edge="1" parent="WIyWlLk6GJQsqaUBKTNV-1" source="Lv3_BhyOrqylA06vnpCk-106" target="Lv3_BhyOrqylA06vnpCk-118">
          <mxGeometry relative="1" as="geometry">
            <mxPoint x="570" y="1080" as="sourcePoint" />
            <mxPoint x="875" y="1534" as="targetPoint" />
            <Array as="points">
              <mxPoint x="720" y="1280" />
            </Array>
          </mxGeometry>
        </mxCell>
        <mxCell id="Lv3_BhyOrqylA06vnpCk-129" value="No" style="edgeLabel;resizable=0;html=1;align=center;verticalAlign=middle;fontFamily=Helvetica;fontSize=11;fontColor=default;" connectable="0" vertex="1" parent="Lv3_BhyOrqylA06vnpCk-128">
          <mxGeometry relative="1" as="geometry" />
        </mxCell>
        <mxCell id="Lv3_BhyOrqylA06vnpCk-130" value="" style="endArrow=classic;html=1;rounded=0;shadow=0;labelBackgroundColor=none;strokeColor=default;strokeWidth=1;align=center;verticalAlign=middle;fontFamily=Helvetica;fontSize=11;fontColor=default;endSize=8;shape=connector;" edge="1" parent="WIyWlLk6GJQsqaUBKTNV-1" source="Lv3_BhyOrqylA06vnpCk-101" target="Lv3_BhyOrqylA06vnpCk-118">
          <mxGeometry relative="1" as="geometry">
            <mxPoint x="579" y="1313" as="sourcePoint" />
            <mxPoint x="862" y="1539" as="targetPoint" />
            <Array as="points">
              <mxPoint x="720" y="1530" />
            </Array>
          </mxGeometry>
        </mxCell>
        <mxCell id="Lv3_BhyOrqylA06vnpCk-131" value="No" style="edgeLabel;resizable=0;html=1;align=center;verticalAlign=middle;fontFamily=Helvetica;fontSize=11;fontColor=default;" connectable="0" vertex="1" parent="Lv3_BhyOrqylA06vnpCk-130">
          <mxGeometry relative="1" as="geometry" />
        </mxCell>
        <mxCell id="Lv3_BhyOrqylA06vnpCk-132" value="" style="endArrow=classic;html=1;rounded=0;shadow=0;labelBackgroundColor=none;strokeColor=default;strokeWidth=1;align=center;verticalAlign=middle;fontFamily=Helvetica;fontSize=11;fontColor=default;endSize=8;shape=connector;" edge="1" parent="WIyWlLk6GJQsqaUBKTNV-1" source="Lv3_BhyOrqylA06vnpCk-91" target="Lv3_BhyOrqylA06vnpCk-118">
          <mxGeometry relative="1" as="geometry">
            <mxPoint x="604" y="1545" as="sourcePoint" />
            <mxPoint x="840" y="1565" as="targetPoint" />
            <Array as="points">
              <mxPoint x="720" y="1780" />
            </Array>
          </mxGeometry>
        </mxCell>
        <mxCell id="Lv3_BhyOrqylA06vnpCk-133" value="No" style="edgeLabel;resizable=0;html=1;align=center;verticalAlign=middle;fontFamily=Helvetica;fontSize=11;fontColor=default;" connectable="0" vertex="1" parent="Lv3_BhyOrqylA06vnpCk-132">
          <mxGeometry relative="1" as="geometry" />
        </mxCell>
        <mxCell id="Lv3_BhyOrqylA06vnpCk-134" value="" style="endArrow=classic;html=1;rounded=0;shadow=0;labelBackgroundColor=none;strokeColor=default;strokeWidth=1;align=center;verticalAlign=middle;fontFamily=Helvetica;fontSize=11;fontColor=default;endSize=8;shape=connector;" edge="1" parent="WIyWlLk6GJQsqaUBKTNV-1" source="Lv3_BhyOrqylA06vnpCk-86" target="Lv3_BhyOrqylA06vnpCk-118">
          <mxGeometry relative="1" as="geometry">
            <mxPoint x="583" y="1769" as="sourcePoint" />
            <mxPoint x="856" y="1597" as="targetPoint" />
            <Array as="points">
              <mxPoint x="720" y="2080" />
            </Array>
          </mxGeometry>
        </mxCell>
        <mxCell id="Lv3_BhyOrqylA06vnpCk-135" value="No" style="edgeLabel;resizable=0;html=1;align=center;verticalAlign=middle;fontFamily=Helvetica;fontSize=11;fontColor=default;" connectable="0" vertex="1" parent="Lv3_BhyOrqylA06vnpCk-134">
          <mxGeometry relative="1" as="geometry" />
        </mxCell>
      </root>
    </mxGraphModel>
  </diagram>
</mxfile>
